<?xml version="1.0" encoding="UTF-8"?><svg id="Layer_2" xmlns="http://www.w3.org/2000/svg" width="135.62" height="134.58" viewBox="0 0 135.62 134.58"><g id="Layer_1-2"><path d="M95.58,88.83l-5.01-.62s2.79-5.04,3.71-16.65c.13-1.61,1.29,17.27,1.29,17.27Z" fill="#434343"/><path d="M93.88,70.57s-.5,8.36-2.29,13.93l-.8-3.78s1.39-9.05,1.49-10.25,1.59.1,1.59.1Z" fill="#fff"/><g id="layer1"><g id="g3953-1"><g id="g14453-9-4"><g id="g14198-3-8"><path id="path13330-7-9" d="M61.34,0c-.28,0-.56.04-.83.09-1.16.2-2.27.73-3.19,1.46-.92.74-1.67,1.68-2.23,2.72-.82,1.52-1.24,3.25-1.23,4.98-3.91,2.02-7.47,4.73-10.44,7.98-3.91,4.27-6.84,10.56-9.68,16.16-5.94,11.68-10.51,24.02-15.37,36.19-3.78,9.45-10.72,28.59-10.72,28.59-.95.42-1.84.97-2.64,1.62-1.78,1.45-3.11,3.44-3.78,5.63h29.45c.02-1.59.26-3.19.7-4.72.57-1.94,1.46-3.77,2.52-5.5,1.76-2.89,3.95-5.48,6.23-7.97,2.17-2.36,4.44-4.64,6.79-6.82l16.92,6.85-4.53,13.58-4.13,3.57-.18,1.01h22.79c4.91-6.08,8.79-12.99,11.45-20.34,5.08-14.07,5.54-29.77,1.27-44.11l-3.92,4.52c2.89,12.88,1.51,26.68-3.88,38.73-2.63,5.89-6.2,11.37-10.52,16.17-1.85-1.97-3.12-4.48-3.62-7.14-.83-4.39.41-8.89,1.84-13.13,1.62-4.8,3.49-9.51,5.61-14.12-2.18,2.12-4.38,4.22-6.59,6.31-1.27,1.19-2.59,2.4-4.2,3.07-.58.24-1.19.41-1.81.42-.62,0-1.26-.15-1.77-.5-.5-.35-.86-.88-1.08-1.45-.22-.57-.31-1.18-.34-1.79-.09-1.65.26-3.32.97-4.82l27.47-28.61,8.1-3.32,4.25-1.75.89-5.39c.36-.35.64-.77.85-1.23.39-.88.44-1.87.41-2.83-.03-.85-.11-1.69-.25-2.53l-5.32-1.05-6.75-2.85c.25-1.39-.03-2.87-.77-4.08-.74-1.22-1.88-2.13-3.04-2.95-1.09-.77-2.22-1.49-3.38-2.16.13-.61.17-1.23.09-1.85-.17-1.37-.87-2.67-1.92-3.56-.77-.65-1.71-1.09-2.7-1.26-.37-.07-.75-.1-1.13-.09-.63.01-1.26.12-1.85.33-1.66.58-3.04,1.93-3.67,3.57l-5.03-.3-.09-.48c-.17-1.09-.68-2.13-1.43-2.95-.67-.73-1.54-1.28-2.48-1.59-.59-.19-1.21-.29-1.83-.3-.09,0-.18,0-.28,0h0ZM61.55,4.59c.23,0,.47.01.7.06.61.13,1.18.47,1.55.97.31.43.46.97.42,1.49l-1.51.23c-.93.25-1.81.67-2.59,1.24-.55.4-1.05.86-1.49,1.37-.59.67-1.09,1.42-1.48,2.22,0-.74.04-1.48.13-2.21.13-1.07.36-2.15.88-3.09.5-.9,1.29-1.66,2.25-2.04.36-.14.76-.23,1.15-.24ZM71.39,8.67c.18,0,.35,0,.53,0,1.4.01,2.8.16,4.18.45,2.25.47,4.44,1.31,6.37,2.57,1.87,1.21,3.51,2.81,4.76,4.66l-8.18.57-3.89,3.8h2.57c.67.72,1.49,1.31,2.39,1.71,1.21.54,2.57.74,3.89.57l.76-3.71,11.79,3.61c-.42,1.07-.35,2.32.19,3.33.42.79,1.12,1.42,1.94,1.77l-.58,2.89c-1.44.41-2.88.78-4.34,1.12-1.69.39-3.39.73-5.11.97-2.96.41-5.95.49-8.93.26,1,.3,1.96.71,2.87,1.24.59.34,1.15.72,1.67,1.15-1.57.86-3.07,1.85-4.48,2.95-2.27,1.78-4.31,3.84-6.06,6.14.29-2.21.37-4.44.24-6.66-.11-1.93-.38-3.86-.81-5.75-1.74,2.57-3.09,5.4-3.99,8.37-.88,2.89-1.33,5.91-1.33,8.93-3.03-2.47-5.24-5.93-6.22-9.71-.79-3.07-.78-6.34.04-9.4l-4.85,9.41c-1.09-2.11-1.66-4.49-1.65-6.87,0-2.05.44-4.09,1.27-5.96l-3.23.39c.58-5.65,3.47-11.04,7.86-14.65,1.99-1.64,4.26-2.92,6.69-3.77,1.21-.23,2.43-.36,3.66-.39h0ZM52.5,16.63c-1.05,3.07-1.68,6.29-1.86,9.53-.2,3.52.12,7.08.87,10.53.93,4.33,2.53,8.51,4.71,12.36l1.05-3.9,2.22,19.45c-2.32-2.09-4.49-4.34-6.48-6.75-3.55-4.29-6.57-9.1-8.25-14.41-1.85-5.85-2.01-12.22-.47-18.16.62-.82,1.27-1.63,1.94-2.41,1.92-2.24,4.02-4.33,6.26-6.25ZM40.46,31c-.83,5.16-.8,10.46.09,15.61l-14.51,17.43,6.5-16.28c2.29-5.74,4.77-11.47,7.93-16.75h0ZM97.84,37.64l-4.7,1.65c6.02,1.95,11.41,5.82,15.19,10.9,4.1,5.52,6.24,12.22,8.18,18.82,2.76,9.38,5.3,18.83,7.61,28.33-2.56-8.14-6.62-15.8-11.91-22.49-3.91-4.94-8.49-9.35-13.57-13.07,1.6,4.17,3,8.43,4.18,12.74,1.15,4.2,2.11,8.45,2.85,12.74-1.27-4.14-3.49-7.98-6.44-11.15-1.8-1.94-2.76-3.3-5.02-4.68l.23,17.17c3.96.66,7.7,2.54,10.59,5.32,1.55,1.49,2.85,3.23,3.85,5.13l-2.47,6.37h25.86c-3.11-13.32-6.86-26.49-11.22-39.46-2.19-6.51-4.62-13.11-8.94-18.44-3.7-4.56-8.71-8.03-14.29-9.89ZM43.96,57.84c1.59,3.58,3.63,6.95,6.04,10.04-3.71,1.52-7.29,3.36-10.68,5.51-9.49,6.01-17.47,14.38-23.01,24.15l-3.7.19,8.2-20.55c1.5-2.71,3.3-5.26,5.36-7.57,4.78-5.37,11-9.45,17.81-11.76Z" fill="#434343"/></g></g></g></g><path d="M7.43,129.73h1.81c1.38,0,2.06.68,2.06,2.06v.75c0,1.38-.68,2.05-2.05,2.05h-2.35v-1.65h2.29c.43,0,.63-.21.63-.65v-.22c0-.44-.21-.65-.63-.65h-1.52c-.46,0-.67.16-.9.48l-1.25,1.71c-.54.76-1.06.98-1.92.98h-1.52c-1.38,0-2.06-.68-2.06-2.06v-.71c0-1.36.68-2.05,2.05-2.05h2.02v1.67h-1.95c-.43,0-.63.21-.63.63v.21c0,.43.21.63.63.63h1.24c.46,0,.68-.16.9-.48l1.25-1.71c.54-.75,1.02-.98,1.92-.98Z" fill="#858993"/><path d="M11.2,127.92H1.63v1.52H.1v-4.74h1.54v1.52h9.57v1.7Z" fill="#3779bb"/><path d="M.1,120.42h1.54v2.08h3.14v-2h1.54v2h3.35v-2.11h1.54v3.81H.1v-3.78Z" fill="#3779bb"/><path d="M6.65,114.71h2.59c1.38,0,2.06.68,2.06,2.06v.84c0,1.38-.68,2.06-2.06,2.06H2.06c-1.38,0-2.06-.68-2.06-2.06v-.83c0-1.38.67-2.05,2.05-2.05h2.27v1.67h-2.17c-.44,0-.65.21-.65.63v.29c0,.44.21.65.65.65h7.01c.44,0,.65-.21.65-.65v-.32c0-.43-.21-.63-.65-.63h-2.51v-1.67Z" fill="#3779bb"/><path d="M4.78,110.58H.1v-1.7h11.11v1.7h-4.89v1.63h4.89v1.7H.1v-1.7h4.68v-1.63Z" fill="#3779bb"/><path d="M29.33,130.11c0,.19-.19.41-.51.41l-2.71.49c-.1,0-.31-.05-.41-.17-2.41-4.44-4.81-9.08-6.08-11.83-1.2-2.58-1.02-.72-1.06,1.68l.08,11.14c0,.19-.22.32-.51.41l-2.71.74c-.31.04-.45-.18-.45-.38l-.06-23.25c0-.22.22-.44.51-.44h2.73c.1,0,.31.05.41.17,4.3,8.35,4.92,9.86,6.76,13.21.56,1.01.48-.03.43-4.23l-.1-8.72c0-.22.19-.44.51-.44h2.66c.31,0,.51.22.51.44v20.76Z" fill="#3779bb"/><path d="M77.33,125.43c-.31,0-.58-.29-.46-.58l6.08-15.59c.19-.67,1.09-.55,1.25.05l6.09,15.47c.1.39.27.75-.12.9l-12.85-.25ZM83.58,117.51l-1.88,4.68,3.73.05-1.85-4.73Z" fill="#3779bb"/><path d="M55.39,109.3c0-.22.22-.41.51-.41h2.64c.31,0,.51.19.51.41v16.41c0,.19-.19.41-.51.41l-2.64.25c-.29,0-.51-.22-.51-.41v-16.66Z" fill="#3779bb"/><path d="M75.14,115.68c.29,0,.51.22.51.44v9.1c0,.19-.22.41-.51.41h-2.32c-.29,0-.51-.17-.51-.39-.02-.48-.05-.39-.05-.85-1.19,1.02-2.37,1.45-4.09,1.45-4.55,0-8.1-3.14-8.1-8.64,0-4.98,3.75-8.61,8.44-8.61,2.3,0,4.45.97,5.98,2.44.12.17.12.48-.05.63l-1.86,1.86c-.19.15-.46.15-.65,0-.87-.9-2.08-1.48-3.41-1.48-2.64,0-4.77,1.91-4.77,5.15,0,3.6,2.13,5.13,4.77,5.13,1.35,0,2.61-.58,3.53-1.55v-1.91h-3.77c-.29,0-.51-.22-.51-.41v-2.35c0-.22.22-.44.51-.44h6.87Z" fill="#3779bb"/><path d="M98.52,111.84c0,.22-.19.39-.51.39h-2.81v13.51c0,.19-.17.41-.48.41l-2.64-.25c-.34,0-.48-.22-.48-.41v-13.26h-2.83c-.29,0-.51-.17-.51-.39v-2.42c0-.22.22-.44.51-.44h9.24c.31,0,.51.22.51.44v2.42Z" fill="#3779bb"/><path d="M123.74,129.52c.12.29-.05.83-.44.83l-2.9-.74c-.15,0-.41-.15-.46-.27l-2.95-10.37h-1.23v9.34c0,.19-.22.41-.53.41l-2.64-.44c-.29,0-.48-.22-.48-.41v-18.52c0-.22.19-.41.48-.41h5.25c.99,0,5.81.05,5.81,5.06,0,2.52-1.31,3.85-2.95,4.5M115.76,115.76h2.08c.6,0,2.15-.12,2.15-1.69s-1.72-1.72-2.15-1.72h-2.08v3.41Z" fill="#3779bb"/><path d="M124.76,125.42c0-.33.19-.52.51-.52h2.64c.24,0,.51.2.51.52.05,1.4.85,2.09,1.79,2.09s1.79-.82,1.79-2.16c0-1.41.23-2.58-1.79-3.16-1.4-.36-1.51-.2-2.59-.75-1.93-.97-2.85-2.66-2.85-5.4,0-4.38,2.61-7.06,5.44-7.06,2.98,0,5.32,2.71,5.37,6.67,0,.29-.22.56-.51.56h-2.61c-.27,0-.51-.26-.51-.56-.05-1.34-.85-2.03-1.74-2.03-.99,0-1.79.78-1.79,2.42,0,1.44.85,2.35,1.79,2.35.12,0,1.33,0,2.54.75,1.86,1.14,2.88,3.5,2.88,6.21,0,4.44-2.64,6.86-5.42,6.86-3.02-.1-5.39-2.45-5.44-6.8Z" fill="#3779bb"/><path d="M53.7,109.05c.38,0,.57.26.45.57l-6.23,17.89c-.17.31-.74.31-.91,0l-6.19-17.89c-.12-.29.07-.57.43-.57h2.79c.21,0,.43.12.45.26,1.05,2.94,1.92,5.52,2.95,8.46.98-2.72,2.02-5.71,3-8.46.02-.14.24-.26.45-.26h2.79Z" fill="#3779bb"/><path d="M98.62,115.69c0-3.82,2.68-6.97,5.97-6.97s5.95,3.15,5.95,6.97-2.68,6.92-5.95,6.92-5.97-3.07-5.97-6.92ZM109.87,127.28c0,.21-.2.45-.49.45l-9.72-.74c-.29,0-.47-.24-.47-.45v-2.42c0-.24.18-.48.47-.48h9.72c.29,0,.49.24.49.48v3.16ZM102.02,115.69c0,1.78,1.15,3.07,2.57,3.07s2.55-1.3,2.55-3.07-1.13-3.13-2.55-3.13-2.57,1.38-2.57,3.13Z" fill="#3779bb"/><path d="M43.96,127.42l-6.19-18.14c-.17-.31-.74-.31-.91,0l-6.23,19.86c-.12.31.07.57.45.57l2.79-.49c.21,0,.43-.12.45-.26.27-.75.54-1.62.82-2.53l4.44-.45c.22.66.45,1.32.69,1.99.02.14.24.26.45.26l2.79-.25c.36,0,.55-.29.43-.57ZM35.85,124.08c.5-1.73,1-3.45,1.49-4.8.54,1.53,1.03,3.04,1.53,4.54l-3.02.26Z" fill="#3779bb"/></g></svg>