<?xml version="1.0" encoding="UTF-8"?><svg id="Layer_2" xmlns="http://www.w3.org/2000/svg" width="206.17" height="110" viewBox="0 0 206.17 110"><g id="Layer_1-2"><path d="M104.49,34.53l.54-3.62s2.01-1.52,1.27-7.83l-.15-.78-6.71-1.17-4.8-1.91s.05-3.87-2.3-5.68c-2.35-1.81-4.55-3.18-4.55-3.18,0,0,.39-6.27-5.87-7.54-6.27-1.27-9.01,3.38-9.01,3.38h-1.62s-2.74-8.47-10.72-4.9c-7.98,3.57-6.95,9.6-6.95,9.6l-3.18,2.11s-6.85,3.23-12.92,15.18c0,0-9.3,19.39-14.59,33.09l-14.1,36.52s-6.76,2.45-7.34,11.55h34.56s-.49-9.79,4.41-13.51c0,0,5.97-7.05,9.3-9.79l11.65,4.11-2.94,10.38-7.15,6.46-.2,2.35h31.53s8.42-11.06,9.01-16.45l3.23.59s7.93,1.57,11.16,7.34l-3.13,8.81h34.47l-10.38-38.87s39.36-1.76,66.48,6.66c0,0,9.89,2.15,10.18-8.81,0,0,1.47-7.93-3.62-10.97h3.92s1.37-12.43-10.87-10.97l-21.34.16.07-12.14s-67.23-.16-67.33-.16Z" fill="#fff"/><polyline points="106.61 47.61 171.88 47.69 171.79 34.67 106.54 34.69" fill="#fff"/><path d="M97.05,90.29l-4.93-.61s2.74-4.96,3.66-16.38c.13-1.58,1.27,16.99,1.27,16.99Z" fill="#434343"/><path d="M95.38,72.32s-.49,8.22-2.25,13.71l-.78-3.72s1.37-8.91,1.47-10.08,1.57.1,1.57.1Z" fill="#fff"/><path d="M133.27,106.83c-3.07-13.13-6.76-26.12-11.06-38.9-2.16-6.42-4.55-12.92-8.81-18.18-3.64-4.5-8.59-7.92-14.08-9.75l-4.64,1.63c5.94,1.93,11.25,5.74,14.97,10.74,4.05,5.44,6.15,12.05,8.06,18.55,2.72,9.25,5.22,18.56,7.5,27.93-2.52-8.02-6.52-15.58-11.74-22.17-3.85-4.87-8.37-9.21-13.38-12.88,1.58,4.11,2.95,8.31,4.12,12.56,1.14,4.14,2.08,8.33,2.81,12.55-1.25-4.08-3.44-7.86-6.34-10.99-1.77-1.91-3.81-3.58-6.03-4.94l1.32,17.24c3.9.65,7.59,2.5,10.44,5.25,1.53,1.47,2.81,3.18,3.8,5.06l-2.43,6.28h25.49Z" fill="#434343"/><path d="M92.1,43.29l-3.87,4.45c2.85,12.7,1.49,26.3-3.82,38.18-2.59,5.81-6.11,11.21-10.37,15.94-1.82-1.95-3.08-4.42-3.57-7.04-.82-4.33.41-8.77,1.82-12.94,1.6-4.73,3.44-9.38,5.53-13.92-2.15,2.09-4.31,4.16-6.5,6.22-1.25,1.18-2.55,2.37-4.14,3.02-.57.24-1.17.4-1.79.41-.61,0-1.24-.14-1.74-.49-.49-.34-.85-.86-1.07-1.42-.22-.56-.31-1.16-.34-1.76-.09-1.63.26-3.27.95-4.75l27.08-28.21,7.99-3.28,4.19-1.72.88-5.31c.35-.35.63-.76.83-1.21.38-.87.43-1.84.4-2.79-.02-.84-.11-1.67-.25-2.49l-5.25-1.03-6.65-2.81c.24-1.37-.03-2.83-.75-4.03-.73-1.2-1.85-2.1-2.99-2.91-1.08-.76-2.19-1.47-3.33-2.12.13-.6.16-1.22.09-1.82-.16-1.35-.86-2.63-1.9-3.51-.76-.64-1.69-1.07-2.66-1.24-.37-.06-.74-.1-1.11-.09-.62.01-1.24.12-1.82.33-1.64.57-3,1.9-3.62,3.52l-4.96-.3-.09-.47c-.17-1.08-.67-2.1-1.41-2.9-.66-.72-1.52-1.26-2.44-1.57-.58-.19-1.19-.29-1.8-.3-.09,0-.18,0-.27,0h0c-.27,0-.55.04-.82.08-1.15.19-2.24.72-3.14,1.44-.91.73-1.64,1.66-2.2,2.68-.81,1.5-1.23,3.21-1.21,4.91-3.86,1.99-7.36,4.66-10.29,7.86-3.86,4.21-6.74,10.41-9.55,15.93-5.86,11.51-10.36,23.68-15.15,35.68-3.72,9.32-10.57,28.18-10.57,28.18-.93.41-1.81.95-2.6,1.6-1.75,1.43-3.07,3.39-3.73,5.55h29.03c.02-1.57.25-3.14.69-4.65.56-1.91,1.44-3.72,2.48-5.42,1.73-2.84,3.89-5.41,6.14-7.86,2.14-2.33,4.38-4.57,6.69-6.72l16.68,6.75-4.46,13.39-4.07,3.52-.18,1h22.47c4.84-6,8.67-12.8,11.29-20.05,5.01-13.87,5.46-29.35,1.26-43.48ZM59.32,12.71c.13-1.05.35-2.12.87-3.04.5-.89,1.27-1.64,2.22-2.01.36-.14.74-.22,1.13-.24.23,0,.46.01.69.06.6.12,1.17.46,1.53.96.3.42.45.95.41,1.47l-1.48.22c-.91.25-1.78.67-2.55,1.22-.54.39-1.03.85-1.47,1.35-.58.66-1.07,1.4-1.46,2.19,0-.73.04-1.46.13-2.18ZM63.04,15.54c1.96-1.61,4.2-2.88,6.6-3.71,1.19-.23,2.4-.36,3.61-.38h0c.17,0,.35,0,.52,0,1.38.01,2.76.16,4.12.44,2.22.46,4.37,1.29,6.28,2.53,1.85,1.2,3.46,2.77,4.69,4.59l-8.06.56-3.84,3.75h2.53c.66.71,1.47,1.3,2.35,1.69,1.19.53,2.54.73,3.83.56l.75-3.66,11.62,3.56c-.42,1.05-.35,2.29.19,3.28.42.78,1.1,1.4,1.91,1.74l-.57,2.85c-1.42.4-2.84.77-4.28,1.1-1.66.39-3.34.72-5.03.95-2.91.4-5.87.49-8.8.25.99.29,1.94.7,2.82,1.22.58.34,1.13.71,1.65,1.13-1.55.85-3.02,1.82-4.41,2.91-2.24,1.75-4.25,3.79-5.97,6.05.28-2.17.36-4.37.24-6.56-.11-1.91-.38-3.81-.8-5.67-1.72,2.53-3.05,5.33-3.94,8.25-.87,2.85-1.31,5.83-1.32,8.81-2.99-2.43-5.17-5.84-6.13-9.57-.78-3.02-.77-6.25.04-9.27l-4.78,9.28c-1.08-2.08-1.64-4.43-1.63-6.77,0-2.02.44-4.04,1.26-5.88l-3.19.38c.57-5.57,3.42-10.88,7.74-14.44ZM46.62,28.36c.62-.81,1.17-2.13,1.84-2.91,1.89-2.21,3.96-4.27,6.17-6.16-1.03,3.03-1.65,6.2-1.83,9.39-.2,3.47.12,6.97.86,10.38.92,4.27,2.63,10.93,4.78,14.73l10.75,6.79-14.16-.31c-1.75-2.89-3.13-4.57-3.46-5.1-1.26-2.17-2.91-4.21-4.57-9.44-1.83-5.76-1.91-11.52-.38-17.37ZM34.76,48.6c2.26-5.66,5.26-12.92,9.99-20.31l-1.33,6.06c-.3,1.5-.8,3.93.47,9.19l-11.25,11.78,2.13-6.72ZM30.57,60.72l1.73-4.86,3.93,13.38s-4.26,7.59-7.99,18.18l3.13-17.71-.8-8.99ZM41.62,75.24c-9.35,5.92-11.18,13.6-16.64,23.23l8.06-18.97,4.46-9.52c.85-1.71,14.81-7.69,17.44-8.26,4.59.2,4.04-.16,11.23.31-3.66,1.5-21.2,11.1-24.55,13.21Z" fill="#434343"/><path d="M27.77,62.32s-13.05,33.56-13.67,36.04l8.08-.09s.44-20.68,5.59-35.95Z" fill="#fff"/><path d="M77.43,47.38l116.74-.39s.04,0,.07,0c.57-.05,8.61-.64,8.9,9.55.01.38-.29.69-.67.69h-2.2c-.68,0-.93.89-.34,1.24h0s.04.02.06.04c.15.11.84.65,1.43,1.58,0,0,2.11,2.78,1.48,7.8-.27,1.6.41,10.35-9.61,9.15-1.2-.14-19.5-5.85-45.19-6.57-17.96-.5-21.11-1.21-35.28.61-.04,0-.08,0-.12,0-4.88-.31-20.29,2.05-36.49,6.12-.43.11-.84-.22-.83-.66l-.09-27.45c0-.31.45-1.66,2.15-1.7Z" fill="#fff"/><path d="M137.88,110h-35.5l3.26-9.15c-3.16-5.44-10.74-6.99-10.82-7.01l-2.84-.52c-.93,5.54-8.69,15.79-9.03,16.23l-.11.15h-32.13l.24-2.91,7.18-6.49,2.81-9.93-11.11-3.92c-3.29,2.78-9.03,9.54-9.09,9.61l-.06.06c-4.68,3.56-4.26,13.09-4.26,13.19l.02.4-36.44.07.03-.4c.55-8.48,6.18-11.98,7.13-12.52l14.57-36.69c5.23-13.56,14.54-32.35,14.63-32.54,6.06-11.92,13.43-15.81,13.74-15.97l2.69-1.59c.15-1.14,1.21-6.73,7.78-9.44,3.28-1.35,5.85-.31,7.44.8,1.9,1.33,3.05,3.18,3.43,4.06.09.2.27.34.48.35l.48.04c.26.02.5-.08.63-.27,2.13-3.08,5.22-4.24,8.94-3.34,5.75,1.39,6.19,6.68,6.21,7.85.57.37,2.45,1.58,4.41,3.09,2.13,1.64,2.41,4.78,2.44,5.72l4.53,1.8,4.28.75c1.58.28,2.78,1.58,2.92,3.18l.06.71c.13,1.41-.09,2.83-.62,4.09-.37.86-.68,1.38-.81,1.57l-.46,3.1c4.9,0,49.32.03,62.67.04,2.56,0,4.64,2.08,4.64,4.64l-.03,6.47c0,.29.11.55.31.76.2.2.47.31.76.31l22.56-.15c4.24-.17,7.25,1.21,8.93,4.11,2.03,3.51,1.33,8.2,1.11,8.54l-.12.19h-.21s-1.69.03-1.69.03c3.7,4.01,1.66,10.17,1.53,10.53-.68,2.42-2.02,4.14-3.97,5.11-4,1.99-9.51.37-12.44-.78-1.11-.43-2.28-.77-3.48-1.01-22.11-4.3-53.92-2.45-58.11-2.18l10.49,39.23ZM103.46,109.24h33.43l-10.47-39.16.46-.03c.35-.03,35.08-2.45,58.76,2.16,1.25.24,2.46.59,3.61,1.04,2.26.88,7.95,2.73,11.82.8,1.75-.87,2.96-2.43,3.58-4.64v-.03c.03-.07,2.34-6.66-1.97-10.35l-.75-.64,3.32-.08c.2-1.07.58-5.35-1.63-8.31-1.6-2.15-4.21-3.16-7.78-3.02l-22.58.15c-.49,0-.95-.19-1.3-.53-.35-.35-.54-.81-.53-1.3l.03-6.47c0-2.14-1.74-3.88-3.88-3.88-14.12,0-63.02-.04-63.11-.04h-.44l.62-4.15.05-.07s.36-.5.78-1.5c.48-1.15.68-2.43.56-3.72l-.06-.71c-.11-1.25-1.06-2.28-2.3-2.5l-4.39-.78-5.04-2.01v-.26s.02-3.7-2.15-5.37c-2.31-1.78-4.5-3.15-4.52-3.16l-.19-.12v-.22c.02-.24.2-5.89-5.62-7.3-3.39-.82-6.2.23-8.13,3.03-.29.41-.79.64-1.32.6l-.48-.04c-.49-.04-.91-.35-1.11-.81-.66-1.53-4.26-6.77-9.88-4.46-6.87,2.83-7.33,8.93-7.34,8.99v.2s-3.06,1.8-3.06,1.8c-2.58,1.33-8.68,6.3-13.43,15.64-.09.18-9.39,18.94-14.61,32.47l-14.68,36.95-.13.06c-.06.03-6.08,3.09-6.81,11.55l34.84-.06c-.04-1.91.08-9.98,4.53-13.41.49-.58,6.08-7.14,9.32-9.81l.17-.14,12.19,4.3-3.06,10.83-7.12,6.43-.15,1.79h30.93c1-1.34,8.29-11.23,8.82-16.11l.04-.4,3.63.66c.34.07,8.15,1.67,11.43,7.53l.08.15-3.01,8.47ZM205.54,58.3s-.01,0-.02,0h.02Z" fill="#434343"/><rect x="106.73" y="36.29" width="56.43" height="11.46" fill="#fff"/><path d="M112,43.86v1.39c0,1.18-.58,1.77-1.77,1.77h-.3c-1.17,0-1.74-.58-1.74-1.74v-2h1.06v2.04c0,.49.23.72.72.72h.22c.49,0,.72-.23.72-.72v-1.43c0-.48-.16-.68-.48-.91l-1.33-.97c-.71-.5-.91-.99-.91-1.77v-1.14c0-1.18.58-1.77,1.77-1.77h.27c1.17,0,1.74.58,1.74,1.74v1.71h-1.06v-1.75c0-.49-.23-.72-.72-.72h-.19c-.49,0-.72.23-.72.72v1.2c0,.48.18.68.49.91l1.32.95c.69.5.91.95.91,1.77Z" fill="#434343"/><path d="M114.98,47.01h-.41c-1.18,0-1.77-.58-1.77-1.77v-6.15c0-1.18.58-1.77,1.77-1.77h.41c1.18,0,1.77.58,1.77,1.77v6.15c0,1.18-.58,1.77-1.77,1.77ZM114.94,38.32h-.33c-.49,0-.72.23-.72.72v6.25c0,.49.23.72.72.72h.33c.49,0,.72-.23.72-.72v-6.25c0-.49-.23-.72-.72-.72Z" fill="#434343"/><path d="M121.48,45.24c0,1.18-.58,1.77-1.77,1.77h-.34c-1.18,0-1.77-.58-1.77-1.77v-7.83h1.09v7.89c0,.49.23.72.72.72h.26c.49,0,.72-.23.72-.72v-7.89h1.09v7.83Z" fill="#434343"/><path d="M123.41,46.93v-8.51h-1.43v-1.01h3.94v1.01h-1.43v8.51h-1.09Z" fill="#434343"/><path d="M129.3,41.56v-4.15h1.09v9.52h-1.09v-4.35h-1.77v4.35h-1.09v-9.52h1.09v4.15h1.77Z" fill="#434343"/><path d="M135.88,45.51l.84-8.1h1.06l-1.16,9.52h-1.41l-.77-6.82-.75,6.82h-1.41l-1.16-9.52h1.09l.82,8.1.9-8.1h1.09l.87,8.1Z" fill="#434343"/><path d="M141.51,37.41v1.01h-1.9v3.15h1.83v.99h-1.83v3.36h1.93v1.01h-3.02v-9.52h2.99Z" fill="#434343"/><path d="M146.06,43.86v1.39c0,1.18-.58,1.77-1.77,1.77h-.3c-1.17,0-1.74-.58-1.74-1.74v-2h1.06v2.04c0,.49.23.72.72.72h.22c.49,0,.72-.23.72-.72v-1.43c0-.48-.16-.68-.48-.91l-1.33-.97c-.71-.5-.91-.99-.91-1.77v-1.14c0-1.18.58-1.77,1.77-1.77h.27c1.17,0,1.74.58,1.74,1.74v1.71h-1.06v-1.75c0-.49-.23-.72-.72-.72h-.19c-.49,0-.72.23-.72.72v1.2c0,.48.18.68.49.91l1.32.95c.69.5.91.95.91,1.77Z" fill="#434343"/><path d="M147.8,46.93v-8.51h-1.43v-1.01h3.94v1.01h-1.43v8.51h-1.09Z" fill="#434343"/><path d="M153.38,46.93v-8.51h-1.43v-1.01h3.94v1.01h-1.43v8.51h-1.09Z" fill="#434343"/><path d="M159.4,37.41v1.01h-1.9v3.15h1.83v.99h-1.83v3.36h1.93v1.01h-3.02v-9.52h2.99Z" fill="#434343"/><path d="M164.05,43.27v1.97c0,1.18-.58,1.77-1.77,1.77h-.35c-1.18,0-1.77-.58-1.77-1.77v-6.15c0-1.18.58-1.77,1.77-1.77h.35c1.17,0,1.74.57,1.74,1.74v1.71h-1.06v-1.74c0-.49-.23-.72-.72-.72h-.27c-.49,0-.72.23-.72.72v6.25c0,.49.23.72.72.72h.3c.49,0,.72-.23.72-.72v-2.03h1.06Z" fill="#434343"/><path d="M167.72,41.56v-4.15h1.09v9.52h-1.09v-4.35h-1.77v4.35h-1.09v-9.52h1.09v4.15h1.77Z" fill="#434343"/><path d="M106.72,45.09s-.03,2.21-2.68,2.26v.64l3.08-.1-.05-3.43-.36.63Z" fill="#fff"/><path d="M97.05,90.29l-4.93-.61s2.74-4.96,3.66-16.38c.13-1.58,1.27,16.99,1.27,16.99Z" fill="#434343"/><path d="M96.2,73.46l-.33-.19s0-.06,0-.08c.01-.12.02-.19.02-.19,0,0-1.64-1.86-1.74-.69-.1,1.17-1.47,10.08-1.47,10.08l.78,3.72c1.43-4.45,2.14-10.32,2.35-12.38l.16.09.22-.38Z" fill="#fff"/><path d="M92.82,70.89c0,.2-.2.42-.52.42l-2.79.51c-.1,0-.32-.05-.42-.17-2.48-4.57-4.95-9.36-6.26-12.18-1.24-2.66-1.05-.75-1.09,1.73l.08,11.47c0,.2-.23.33-.52.42l-2.79.76c-.32.04-.46-.19-.46-.39l-.06-23.94c0-.22.22-.45.52-.45h2.81c.1,0,.32.05.42.17,4.43,8.6,5.07,10.15,6.96,13.6.57,1.04.49-.03.44-4.35l-.1-8.98c0-.22.2-.45.52-.45h2.74c.32,0,.52.22.52.45v21.38Z" fill="#3779bb"/><path d="M142.25,66.06c-.32,0-.6-.3-.47-.6l6.26-16.05c.2-.69,1.13-.56,1.29.05l6.27,15.93c.1.4.28.77-.12.92l-13.23-.25ZM148.69,57.91l-1.93,4.82,3.84.05-1.91-4.87Z" fill="#3779bb"/><path d="M119.66,49.46c0-.22.22-.42.52-.42h2.72c.32,0,.52.2.52.42v16.9c0,.2-.2.42-.52.42l-2.72.25c-.3,0-.52-.22-.52-.42v-17.15Z" fill="#3779bb"/><path d="M139.99,56.03c.3,0,.52.22.52.45v9.37c0,.2-.22.42-.52.42h-2.39c-.3,0-.52-.17-.52-.4-.02-.5-.05-.4-.05-.87-1.22,1.05-2.44,1.49-4.21,1.49-4.68,0-8.34-3.24-8.34-8.89,0-5.13,3.86-8.87,8.69-8.87,2.37,0,4.58,1,6.15,2.52.12.17.12.5-.05.65l-1.92,1.92c-.2.15-.47.15-.67,0-.9-.92-2.14-1.52-3.51-1.52-2.72,0-4.91,1.97-4.91,5.31,0,3.71,2.19,5.28,4.91,5.28,1.39,0,2.69-.6,3.64-1.59v-1.97h-3.89c-.3,0-.52-.22-.52-.42v-2.42c0-.22.22-.45.52-.45h7.07Z" fill="#3779bb"/><path d="M164.07,52.07c0,.22-.2.4-.52.4h-2.89v13.91c0,.2-.17.42-.5.42l-2.72-.25c-.35,0-.5-.22-.5-.42v-13.66h-2.91c-.3,0-.52-.17-.52-.4v-2.49c0-.22.22-.45.52-.45h9.52c.32,0,.52.22.52.45v2.49Z" fill="#3779bb"/><path d="M190.04,70.28c.12.3-.05.85-.45.85l-2.99-.76c-.15,0-.42-.15-.47-.27l-3.04-10.68h-1.27v9.62c0,.2-.22.42-.55.42l-2.72-.46c-.3,0-.5-.22-.5-.42v-19.07c0-.22.2-.42.5-.42h5.41c1.02,0,5.98.05,5.98,5.21,0,2.59-1.35,3.96-3.04,4.63M181.82,56.1h2.14c.62,0,2.22-.12,2.22-1.74s-1.77-1.77-2.22-1.77h-2.14v3.51Z" fill="#3779bb"/><path d="M191.09,66.06c0-.34.2-.54.52-.54h2.72c.25,0,.52.2.52.54.05,1.45.87,2.15,1.84,2.15s1.84-.84,1.84-2.22c0-1.45.24-2.66-1.84-3.25-1.44-.37-1.55-.21-2.67-.77-1.99-1-2.94-2.73-2.94-5.56,0-4.51,2.69-7.27,5.6-7.27,3.06,0,5.48,2.79,5.53,6.86,0,.3-.22.57-.52.57h-2.69c-.27,0-.52-.27-.52-.57-.05-1.38-.87-2.09-1.79-2.09-1.02,0-1.84.81-1.84,2.49,0,1.48.87,2.42,1.84,2.42.12,0,1.37,0,2.62.77,1.92,1.18,2.96,3.6,2.96,6.39,0,4.58-2.72,7.07-5.58,7.07-3.11-.1-5.55-2.52-5.6-7Z" fill="#3779bb"/><path d="M117.92,49.2c.39,0,.59.27.47.59l-6.42,18.43c-.17.32-.76.32-.93,0l-6.37-18.43c-.12-.3.07-.59.44-.59h2.88c.22,0,.44.12.47.27,1.08,3.03,1.98,5.68,3.03,8.71,1.01-2.8,2.08-5.88,3.09-8.71.02-.15.25-.27.47-.27h2.88Z" fill="#3779bb"/><path d="M164.18,56.04c0-3.93,2.76-7.18,6.15-7.18s6.12,3.25,6.12,7.18-2.76,7.12-6.12,7.12-6.15-3.17-6.15-7.12ZM175.76,67.97c0,.22-.21.46-.5.46l-10.01-.76c-.3,0-.48-.25-.48-.46v-2.5c0-.25.18-.49.48-.49h10.01c.3,0,.5.25.5.49v3.25ZM167.67,56.04c0,1.83,1.19,3.17,2.65,3.17s2.63-1.34,2.63-3.17-1.17-3.22-2.63-3.22-2.65,1.42-2.65,3.22Z" fill="#3779bb"/><path d="M107.89,68.12l-6.37-18.68c-.17-.32-.76-.32-.93,0l-6.42,20.45c-.12.32.07.59.47.59l2.88-.51c.22,0,.44-.12.47-.27.28-.77.56-1.66.84-2.6l4.57-.46c.23.68.47,1.36.71,2.05.02.15.25.27.47.27l2.88-.25c.37,0,.57-.3.44-.59ZM99.53,64.67c.52-1.78,1.03-3.55,1.54-4.94.55,1.58,1.06,3.13,1.57,4.68l-3.11.26Z" fill="#3779bb"/></g></svg>