<?xml version="1.0" encoding="UTF-8"?><svg id="Layer_2" xmlns="http://www.w3.org/2000/svg" width="234.93" height="48.82" viewBox="0 0 234.93 48.82"><g id="Layer_1-2"><path d="M66.4,29.26v3.99c0,3.4-1.68,5.09-5.08,5.09h-.86c-3.36,0-5.01-1.68-5.01-5.01v-5.75s3.05,0,3.05,0v5.87c0,1.41.66,2.07,2.07,2.07h.63c1.41,0,2.07-.66,2.07-2.07v-4.11c0-1.37-.47-1.96-1.37-2.62l-3.83-2.78c-2.03-1.45-2.62-2.85-2.62-5.08v-3.29c0-3.4,1.68-5.08,5.08-5.08h.78c3.36,0,5.01,1.68,5.01,5.01v4.93s-3.05,0-3.05,0v-5.05c0-1.41-.66-2.07-2.07-2.07h-.55c-1.41,0-2.07.66-2.07,2.07v3.44c0,1.37.51,1.96,1.41,2.62l3.79,2.74c2,1.45,2.62,2.74,2.62,5.08Z" fill="#3779bb"/><path d="M75.36,38.34h-1.17c-3.4,0-5.08-1.68-5.08-5.09V15.57c0-3.4,1.68-5.08,5.08-5.08h1.17c3.4,0,5.08,1.68,5.08,5.08v17.68c0,3.4-1.68,5.09-5.08,5.09ZM75.24,13.34h-.94c-1.41,0-2.07.66-2.07,2.07v17.99c0,1.41.66,2.07,2.07,2.07h.94c1.41,0,2.07-.66,2.07-2.07V15.42c0-1.41-.66-2.07-2.07-2.07Z" fill="#3779bb"/><path d="M94.45,33.25c0,3.4-1.68,5.09-5.08,5.09h-.98c-3.4,0-5.08-1.68-5.08-5.09V10.72s3.13,0,3.13,0v22.69c0,1.41.66,2.07,2.07,2.07h.74c1.41,0,2.07-.66,2.07-2.07V10.72s3.13,0,3.13,0v22.53Z" fill="#3779bb"/><path d="M100.4,38.1V13.61s-4.11,0-4.11,0v-2.89s11.34,0,11.34,0v2.89s-4.11,0-4.11,0v24.49s-3.13,0-3.13,0Z" fill="#3779bb"/><path d="M117.73,22.65v-11.93s3.13,0,3.13,0v27.38s-3.13,0-3.13,0v-12.52s-5.08,0-5.08,0v12.52s-3.13,0-3.13,0V10.72s3.13,0,3.13,0v11.93s5.08,0,5.08,0Z" fill="#3779bb"/><path d="M137.05,34.03l2.42-23.31h3.05s-3.32,27.38-3.32,27.38h-4.07s-2.23-19.64-2.23-19.64l-2.15,19.64h-4.07s-3.32-27.38-3.32-27.38h3.13s2.35,23.31,2.35,23.31l2.58-23.31h3.13s2.5,23.31,2.5,23.31Z" fill="#3779bb"/><path d="M153.64,10.72v2.89s-5.48,0-5.48,0v9.08s5.28,0,5.28,0v2.85s-5.28,0-5.28,0v9.66s5.55,0,5.55,0v2.89s-8.68,0-8.68,0V10.72s8.61,0,8.61,0Z" fill="#3779bb"/><path d="M167.14,29.26v3.99c0,3.4-1.68,5.09-5.08,5.09h-.86c-3.36,0-5.01-1.68-5.01-5.01v-5.75s3.05,0,3.05,0v5.87c0,1.41.66,2.07,2.07,2.07h.63c1.41,0,2.07-.66,2.07-2.07v-4.11c0-1.37-.47-1.96-1.37-2.62l-3.83-2.78c-2.03-1.45-2.62-2.85-2.62-5.08v-3.29c0-3.4,1.68-5.08,5.08-5.08h.78c3.36,0,5.01,1.68,5.01,5.01v4.93s-3.05,0-3.05,0v-5.05c0-1.41-.66-2.07-2.07-2.07h-.55c-1.41,0-2.07.66-2.07,2.07v3.44c0,1.37.51,1.96,1.41,2.62l3.79,2.74c2,1.45,2.62,2.74,2.62,5.08Z" fill="#3779bb"/><path d="M172.54,38.1V13.61s-4.11,0-4.11,0v-2.89s11.34,0,11.34,0v2.89s-4.11,0-4.11,0v24.49s-3.13,0-3.13,0Z" fill="#3779bb"/><path d="M189.36,38.1V13.61s-4.11,0-4.11,0v-2.89s11.34,0,11.34,0v2.89s-4.11,0-4.11,0v24.49s-3.13,0-3.13,0Z" fill="#3779bb"/><path d="M207.08,10.72v2.89s-5.48,0-5.48,0v9.08s5.28,0,5.28,0v2.85s-5.28,0-5.28,0v9.66s5.55,0,5.55,0v2.89s-8.68,0-8.68,0V10.72s8.61,0,8.61,0Z" fill="#3779bb"/><path d="M220.85,27.58v5.67c0,3.4-1.68,5.09-5.08,5.09h-1.02c-3.4,0-5.08-1.68-5.08-5.09V15.57c0-3.4,1.68-5.08,5.08-5.08h1.02c3.36,0,5.01,1.64,5.01,5.01v4.93s-3.05,0-3.05,0v-5.01c0-1.41-.66-2.07-2.07-2.07h-.78c-1.41,0-2.07.66-2.07,2.07v17.99c0,1.41.66,2.07,2.07,2.07h.86c1.41,0,2.07-.66,2.07-2.07v-5.83s3.05,0,3.05,0Z" fill="#3779bb"/><path d="M231.8,22.65v-11.93s3.13,0,3.13,0v27.38s-3.13,0-3.13,0v-12.52s-5.09,0-5.09,0v12.52s-3.13,0-3.13,0V10.72s3.13,0,3.13,0v11.93s5.09,0,5.09,0Z" fill="#3779bb"/><polygon points="25.56 5.2 38.01 22.09 44.33 25.66 34.94 24.53 25.56 12.08 25.56 5.2" fill="#3779bb"/><polygon points="40.24 26.87 34.94 26.16 25.67 36.12 25.68 48.82 28.2 40.17 40.24 26.87" fill="#3779bb"/><polygon points="24.06 36.04 24.06 42.99 9.57 26.16 0 21.71 13.61 23.5 24.06 36.04" fill="#3779bb"/><polygon points="6.44 20.78 13.61 21.71 23.87 12.11 23.83 0 21.43 7.39 6.44 20.78" fill="#3779bb"/></g></svg>