<?xml version="1.0" encoding="UTF-8"?><svg id="Layer_2" xmlns="http://www.w3.org/2000/svg" width="87.01" height="113.96" viewBox="0 0 87.01 113.96"><g id="Layer_1-2"><path d="M85.71,83l-.22,5.4c-.56,1.74-.84,3.53-1.4,5.27-2.14,6.63-8.19,19.11-16.51,18.46-7.2-.56-12.78-5.99-21.76-5.62-8.06.33-12.88,5.43-20.18,7.45-1.42-.18-3.07.04-4.44-.18-11.17-1.8-22.2-20.05-18.31-30.62,2.21-6,7.85-5.86,12.36-8.47,10.46-6.05,6.52-20.18,21.85-22.7,7.48-1.23,17.72-.53,23.6,4.71,4,3.56,5.31,7.38,10.29,10.38,7.61,4.59,14,5.21,14.72,15.92Z" fill="#434343"/><path d="M38.51.01c6.02,4.46,7.26,12.52,7.79,19.56.08,1.1-.27,2.24,0,3.37.13.54,1.77,1.74,2.3,2.46,3.13,4.2,3.16,10.66,2.55,15.67-.63,5.19-2.6,8.01-8.1,8.12-5.23.1-8.41-1.88-9.07-7.25-.81-6.58.27-16.27,7.05-19.3,1.57-7.69.32-15.54-2.84-22.63h.32Z" fill="#434343"/><path d="M86.98,51.58c.1,1.31-.02,4.42-.23,5.71-.38,2.33-2.49,7.2-4.18,8.89-2.88,2.88-5.73,1.3-8.66-.57-2.55-1.63-3.87-2.92-4.39-6.04-.89-5.42.38-14.39,5.29-17.71.92-.62,2.59-.94,3.07-1.3.5-.38.65-6.19.62-7.3-.12-4.56-1.54-9.6-3.59-13.64,5.32,2.35,7.21,10.19,7.87,15.51.27,2.22-.01,5.5.5,7.48.23.89,1.58,2.24,2.07,3.29.55,1.18,1.53,4.45,1.62,5.69Z" fill="#434343"/><path d="M57.06,5.22c4.91,2.45,6.76,9.18,7.54,14.29.33,2.2.12,6.1.54,7.75.1.4,2.5,2.97,3.11,4.16,2.8,5.47,2.29,16.89-2.49,21.18-3.68,3.31-10.93-1.96-12.36-5.65-2.34-6.03-.27-15.25,4.82-19.42,1.43-1.17,1.8-.29,2.18-2.94.9-6.28-.72-13.66-3.34-19.36Z" fill="#434343"/><path d="M28.31,8.51c-.58,1.35-1.44,2.61-1.99,3.97-1.95,4.78-3.26,11.02-2.56,16.12,6.05,2.18,7.82,9.67,7.9,15.49.05,3.95-.15,6.14-3.39,8.61-3.66,2.79-6.95,4.47-10.35.39-4.18-5.02-5.17-14.19-2.21-19.97.53-1.04,2.63-3.13,2.78-3.61.73-2.2.84-6,1.52-8.62,1.21-4.68,3.53-10.46,8.29-12.38Z" fill="#434343"/><path d="M11.57,29.45c-3.48,6.53-4.89,13.49-4.62,20.91,1.3.93,2.52,1.18,3.83,2.27,3.1,2.59,6.51,11.78,6.22,15.66-.26,3.55-6.24,6.53-9.4,5.61-6.07-1.76-8.78-12.39-7.13-17.88.74-2.47.93-2.77,1.35-5.5.69-4.48,1.29-9.03,3.07-13.24,1.28-3.02,3.45-6.7,6.68-7.83Z" fill="#434343"/></g></svg>